<?xml version="1.0" encoding="UTF-8" standalone="no"?>
<svg
   width="210mm"
   height="143mm"
   viewBox="0 0 210 143"
   version="1.1"
   id="svg6"
   xmlns="http://www.w3.org/2000/svg"
   xmlns:svg="http://www.w3.org/2000/svg">
  <defs
     id="defs2" />
  <g
     id="layer1">
    <path
       style="fill:#333333;fill-opacity:1;stroke:none;stroke-width:0.221696px;stroke-linecap:butt;stroke-linejoin:miter;stroke-opacity:1"
       d="m 33.163048,139.56113 c -2.00232,-1.59943 -6.03021,-3.52606 -9.108884,-0.013 -0.297659,0.51823 -0.750272,1.58995 0.374923,2.14052 3.67684,1.41372 7.658914,1.55562 11.645287,1.6796 l 4.143036,-23.62648 c 10.579984,-2.33193 21.029514,-5.38138 31.016753,-10.97344 l 10.413568,30.79281 c 4.25361,0.15766 8.450488,0.65576 12.988968,-0.89579 0.845619,-0.30247 1.628628,-1.05191 0.671853,-2.46342 -3.781561,-4.69544 -7.791131,-3.46273 -11.869236,-0.44789 L 75.153252,99.250583 C 63.110972,106.7793 49.757917,113.0328 34.730685,116.3826 Z"
       id="path1253" />
    <path
       style="fill:#999999;fill-opacity:1;stroke:none;stroke-width:0.221696px;stroke-linecap:butt;stroke-linejoin:miter;stroke-opacity:1"
       d="M 34.730685,116.38256 19.054343,85.813661 C 35.980846,82.03742 51.540654,77.518631 66.531261,67.561926 l 8.621991,31.688618 c -5.495238,4.358336 -13.18487,11.392316 -40.422567,17.132016 z"
       id="path1271" />
    <path
       style="fill:#333333;fill-opacity:1;stroke:none;stroke-width:0.221696px;stroke-linecap:butt;stroke-linejoin:miter;stroke-opacity:1"
       d="m 51.638738,81.446686 2.239482,1.903554 -2.35145,17.91583 5.822643,4.59092 4.702902,-6.382506 -5.598695,-17.467933 0.671844,-2.239472 -1.11974,-1.679606 -4.031066,1.679606 z"
       id="path1255" />
    <path
       style="fill:#fddcbe;fill-opacity:1;stroke:none;stroke-width:0.221696px;stroke-linecap:butt;stroke-linejoin:miter;stroke-opacity:1"
       d="M 19.054344,85.813661 C 35.545829,82.171185 51.807871,77.687428 66.531261,67.561926 60.297112,50.673572 53.653217,42.389912 46.823867,38.000823 -9.75241,37.701262 20.537583,67.208755 19.054344,85.813661 Z"
       id="path1316" />
    <path
       style="fill:#333333;fill-opacity:1;stroke:none;stroke-width:0.221696px;stroke-linecap:butt;stroke-linejoin:miter;stroke-opacity:1"
       d="m 19.054344,85.813661 c 3.329883,-5.068449 4.482369,-11.104624 5.150795,-17.355942 -0.851969,0.423563 -1.729445,1.251376 -2.713956,1.409858 -2.508699,0.330271 -2.434638,-1.220314 -2.660787,-2.417629 -0.108795,-1.660587 0.408956,-2.967734 2.351447,-3.471183 0.923544,-0.136823 1.816589,0.122845 2.687378,0.671835 L 22.973429,54.125063 c 16.065871,-2.714534 36.98122,-8.656245 30.344918,-36.951374 -2.252846,5.406796 -3.213084,11.804589 -17.69187,7.838167 -14.307602,-3.33907 -24.0185,8.181729 -24.410305,15.900293 -8.7971932,1.142958 -11.97964132,7.588738 -5.5986918,23.066616 3.7576993,8.480392 8.4178708,15.45666 13.4368638,21.834896 z"
       id="path1318" />
    <ellipse
       style="fill:#523d26;fill-opacity:1;stroke:none;stroke-width:0.0837909"
       id="path1320"
       cx="6.441999"
       cy="69.705803"
       rx="1.5676341"
       ry="3.1352682"
       transform="rotate(-21.037511)" />
    <ellipse
       style="fill:#523d26;fill-opacity:1;stroke:none;stroke-width:0.0837909"
       id="path1320-5"
       cx="28.614283"
       cy="68.515976"
       rx="1.5676341"
       ry="3.1352682"
       transform="rotate(-21.037511)" />
    <path
       style="fill:#eb7d86;fill-opacity:1;stroke:none;stroke-width:0.221696px;stroke-linecap:butt;stroke-linejoin:miter;stroke-opacity:1"
       d="m 38.985691,68.34574 c 3.824739,-2.633801 8.051817,-4.328809 12.31713,-5.934612 0.447201,-0.101022 1.120537,-0.08118 1.44945,0.974966 1.688062,5.056626 -0.333086,7.508911 -3.576953,9.102683 -5.544306,2.34055 -8.739884,0.653167 -10.637524,-2.799348 -0.254641,-0.674107 0.05086,-1.034516 0.447897,-1.343689 z"
       id="path1334" />
    <ellipse
       style="fill:#ffffff;stroke-width:0.1"
       id="path875"
       cx="-129.65529"
       cy="77.730797"
       rx="27.960785"
       ry="3.6474702" />
    <path
       style="color:#000000;fill:#d66538;fill-opacity:1;stroke-width:0.102621"
       d="m 198.45762,48.446741 c -1.49169,0.405206 -2.90426,0.256468 -4.21319,-0.617756 -11.97931,-9.99034 -23.93903,-20.010089 -33.89728,-33.032036 -1.3361,-1.59486 -0.67773,-3.162489 0.29017,-4.170511 1.29532,-1.3055131 3.15601,-2.4716822 5.23953,-3.295507 29.81062,-14.3330157 52.73997,6.382091 36.84985,35.128602 -1.15601,2.206493 -2.93941,5.338969 -4.26908,5.987208 z"
       id="path1148" />
    <path
       id="path1148-9"
       style="color:#000000;fill:#cc6034;fill-opacity:1;stroke-width:0.102621"
       d="m 201.70693,9.0023766 0.0148,0.069961 -25.64482,22.9020504 -0.0328,0.005 c 5.88243,5.559707 12.03767,10.710037 18.2003,15.84944 1.30892,0.874224 2.7211,1.023013 4.21279,0.617807 1.32965,-0.648241 3.113,-3.780724 4.26901,-5.987217 7.84782,-14.197324 6.22294,-26.432122 -1.01925,-33.456847 z" />
    <path
       style="color:#000000;fill:#d66538;fill-opacity:1;stroke-width:0.100888"
       d="m 56.835129,47.011822 c 1.466509,0.39835 2.855228,0.252126 4.142022,-0.607334 11.777031,-9.82161 23.534765,-19.672143 33.32484,-32.47418 C 95.61554,12.362377 94.968283,10.821227 94.016729,9.8302398 92.743291,8.5467721 90.914009,7.4002934 88.865665,6.5903778 59.558503,-7.5005737 37.016385,12.864688 52.638148,41.125723 c 1.136491,2.169223 2.889775,5.248801 4.196981,5.886099 z"
       id="path1148-5" />
    <path
       id="path1148-9-6"
       style="color:#000000;fill:#cc6034;fill-opacity:1;stroke-width:0.100888"
       d="m 53.640706,8.2336027 -0.01466,0.068879 25.211724,22.5152713 0.03234,0.005 C 73.08703,36.288608 67.035738,41.351954 60.97719,46.404567 59.690378,47.264019 58.302038,47.410302 56.835544,47.011943 55.528329,46.374655 53.775112,43.295077 52.638613,41.125845 44.923345,27.168259 46.520778,15.140098 53.640666,8.233997 Z" />
    <path
       style="color:#000000;fill:#523d26;fill-opacity:1;stroke-width:0.088671"
       d="m 81.422468,139.41896 c -1.617896,-1.65136 -0.735971,-3.29316 1.058388,-4.88066 l 26.067524,-24.79416 6.91455,6.80842 -26.10272,24.82914 c -0.992053,0.94364 -3.240068,2.31451 -4.972866,0.65986 -1.877036,-1.79238 -1.078097,-0.84037 -2.964876,-2.6226 z"
       id="path1094-9-3" />
    <path
       style="color:#000000;fill:#523d26;fill-opacity:1;stroke-width:0.0899429"
       d="m 172.8093,139.60744 c 1.6411,-1.67504 0.74654,-3.34039 -1.07357,-4.95067 l -26.44153,-25.14987 -7.01374,6.9061 26.4772,25.18536 c 1.00629,0.95717 3.28655,2.34772 5.04423,0.66933 1.90396,-1.81811 1.09355,-0.85243 3.00741,-2.66025 z"
       id="path1094-9-3-3" />
    <circle
       style="fill:#d66538;fill-opacity:1;stroke-width:0.111335"
       id="path969-7"
       cx="126.96519"
       cy="73.76944"
       r="61.447285" />
    <path
       id="path969-5"
       style="fill:#cc6034;fill-opacity:1;stroke-width:0.102154"
       d="M 126.96515,17.389358 A 56.379922,56.379922 0 0 0 70.585285,73.769656 56.379922,56.379922 0 0 0 126.96515,130.14953 56.379922,56.379922 0 0 0 183.34504,73.769656 56.379922,56.379922 0 0 0 126.96515,17.389358 Z m 0,10.134828 a 46.245206,46.245206 0 0 1 46.24547,46.24547 46.245206,46.245206 0 0 1 -46.24547,46.245024 46.245206,46.245206 0 0 1 -46.245018,-46.245024 46.245206,46.245206 0 0 1 46.245018,-46.24547 z" />
    <path
       style="color:#000000;fill:#f5f5f5;stroke-width:0.0837909"
       d="M 173.21037,73.769446 A 46.245206,46.245206 0 0 1 126.96516,120.01465 46.245206,46.245206 0 0 1 80.719947,73.769446 46.245206,46.245206 0 0 1 126.96516,27.524245 46.245206,46.245206 0 0 1 173.21037,73.769446 Z"
       id="path1066" />
    <path
       style="fill:#e9e9e9;fill-opacity:1;stroke:none;stroke-width:0.221696px;stroke-linecap:butt;stroke-linejoin:miter;stroke-opacity:1"
       d="m 80.719955,73.769446 c 1.170058,-61.205752 91.395885,-61.496801 92.490395,0 -16.89113,-60.288451 -80.033507,-50.396994 -92.490395,0"
       id="path1068" />
    <g
       id="g1385"
       transform="matrix(0.83790974,0,0,0.83790974,-59.60083,235.99313)">
      <path
         style="fill:#666666;fill-opacity:1;stroke:none;stroke-width:0.262733px;stroke-linecap:butt;stroke-linejoin:miter;stroke-opacity:1"
         d="m 107.98865,-171.45746 c 6.81452,5.44739 24.89175,8.67993 33.73611,9.33635 13.93594,1.0343 27.17833,-2.50254 39.27219,-14.115 1.08064,-1.32039 0.0267,-3.13457 -0.55477,-2.81098 0.4242,-0.95905 -0.65841,-1.85144 -1.49346,-1.3639 0.34224,-1.28413 -0.34553,-1.73362 -1.77486,-1.58219 1.1843,-1.38234 2.52997,-2.60019 3.43332,-4.26891 0.33159,-0.79088 -0.60514,-1.08988 -1.21243,-0.61202 -3.50127,3.3189 -6.97726,7.19263 -10.51435,9.72473 -17.39895,11.99457 -34.5662,7.41268 -51.70683,0.92595 l -2.70363,7.50548 z"
         id="path1257" />
      <path
         style="fill:#fddcbe;fill-opacity:1;stroke:none;stroke-width:0.264583px;stroke-linecap:butt;stroke-linejoin:miter;stroke-opacity:1"
         d="m 114.46994,-168.71795 c 22.51074,7.77816 44.72715,9.83554 64.47878,-11.69304 1.092,-1.47727 -0.34762,-1.78657 -0.91835,-1.40277 0.44788,-1.0482 -0.54955,-1.92199 -1.37017,-1.34654 0.38361,-1.388 -0.25518,-1.81832 -1.63002,-1.55916 1.19394,-1.55022 2.53519,-2.93675 3.47266,-4.77194 0.35189,-0.86316 -0.53175,-1.11646 -1.13393,-0.56697 -3.49628,3.76719 -6.99256,8.12217 -10.48884,11.0558 -17.17812,13.9409 -33.58133,8.49335 -49.70649,2.77914 z"
         id="path1257-5" />
    </g>
    <text
       xml:space="preserve"
       style="font-style:italic;font-weight:bold;font-size:13.827px;line-height:1.25;font-family:Arial;-inkscape-font-specification:'Arial Bold Italic';fill:#2b0000;fill-opacity:1;stroke-width:0.185183"
       x="256.55359"
       y="18.256039"
       id="text923-3"><tspan
         id="tspan921-3"
         style="font-style:normal;font-variant:normal;font-weight:bold;font-stretch:normal;font-size:13.827px;font-family:'Marker Felt';-inkscape-font-specification:'Marker Felt Bold';fill:#2b0000;fill-opacity:1;stroke-width:0.185183"
         x="256.55359"
         y="18.256039" /></text>
    <text
       xml:space="preserve"
       style="font-style:italic;font-weight:bold;font-size:6.80247px;line-height:1.25;font-family:Arial;-inkscape-font-specification:'Arial Bold Italic';fill:#523d26;fill-opacity:1;stroke-width:0.170062"
       x="7.3264294"
       y="144.18129"
       id="text880"
       transform="rotate(-43.650101)"><tspan
         id="tspan878"
         style="font-style:normal;font-variant:normal;font-weight:normal;font-stretch:normal;font-family:'Exotc350 Bd BT';-inkscape-font-specification:'Exotc350 Bd BT';fill:#523d26;fill-opacity:1;stroke-width:0.170062"
         x="7.3264294"
         y="144.18129">DAFTAR</tspan></text>
    <text
       xml:space="preserve"
       style="font-style:italic;font-weight:bold;font-size:7.04214px;line-height:1.25;font-family:Arial;-inkscape-font-specification:'Arial Bold Italic';fill:#523d26;fill-opacity:1;stroke-width:0.176055"
       x="-66.451813"
       y="130.12328"
       id="text880-2"
       transform="rotate(-90.255009)"><tspan
         id="tspan878-7"
         style="font-style:normal;font-variant:normal;font-weight:normal;font-stretch:normal;font-family:'Exotc350 Bd BT';-inkscape-font-specification:'Exotc350 Bd BT';fill:#523d26;fill-opacity:1;stroke-width:0.176055"
         x="-66.451813"
         y="130.12328">H A D I R</tspan></text>
    <g
       id="g1658"
       transform="matrix(0.83790975,0,0,0.83790975,-84.219994,101.30928)"
       style="opacity:1">
      <g
         id="g1620"
         transform="translate(23.56081,163.38374)">
        <path
           style="color:#000000;fill:#cc6034;fill-opacity:1;stroke-width:0.0120141"
           d="m 235.10797,-196.25104 a 6.630711,6.630711 0 0 1 -6.63071,6.63071 6.630711,6.630711 0 0 1 -6.63072,-6.63071 6.630711,6.630711 0 0 1 6.63072,-6.63071 6.630711,6.630711 0 0 1 6.63071,6.63071 z"
           id="path1066-5" />
      </g>
    </g>
  </g>
</svg>
