<?xml version="1.0" encoding="UTF-8"?>
<svg version="1.1" xmlns="http://www.w3.org/2000/svg" width="50" height="39">
<path d="M0 0 C3.3 0 6.6 0 10 0 C10 1.32 10 2.64 10 4 C12.97 3.34 15.94 2.68 19 2 C19 1.34 19 0.68 19 0 C27.47944244 -0.65562699 33.87912547 0.07360882 41 5 C42.77439098 8.54878196 42.78541609 12.14655232 42 16 C40.36476221 18.3710948 38.60241126 20.27624628 36.53125 22.2734375 C34.66823854 23.98945173 34.66823854 23.98945173 35 27 C27.6000784 31.06112834 19.61265293 35 11 35 C10.67 36.32 10.34 37.64 10 39 C7.03 39 4.06 39 1 39 C1 37.68 1 36.36 1 35 C0.43410156 34.72285156 -0.13179688 34.44570313 -0.71484375 34.16015625 C-1.44832031 33.79792969 -2.18179687 33.43570313 -2.9375 33.0625 C-3.66839844 32.70285156 -4.39929688 32.34320313 -5.15234375 31.97265625 C-7 31 -7 31 -8 30 C-8.4456176 26.61967217 -8.47356266 23.37738641 -8 20 C-5.6875 17.25 -5.6875 17.25 -4.3125 15.9140625 C-1.23710076 11.42910528 -0.88883459 5.27519714 0 0 Z M27 4 C26.67 6.31 26.34 8.62 26 11 C28.97 11 31.94 11 35 11 C34.34 14.63 33.68 18.26 33 22 C36.52381687 19.45395403 36.52381687 19.45395403 39 16 C39.50031206 12.58428147 39.50031206 12.58428147 39 9 C35.51752628 4.98987875 32.17156444 4.4056129 27 4 Z M8 7 C7.67 8.32 7.34 9.64 7 11 C10.3 11 13.6 11 17 11 C17.33 9.02 17.66 7.04 18 5 C14.03397243 5 11.59650092 5.40155515 8 7 Z M-2.3125 16.125 C-4.53461544 19.9108263 -5.52077332 22.91690673 -4.4375 27.25 C-2.37057858 29.76625217 -0.08507489 30.19519785 3 31 C3.33 29.35 3.66 27.7 4 26 C3.01 26 2.02 26 1 26 C1 25.01 1 24.02 1 23 C2.32 22.67 3.64 22.34 5 22 C5.33 19.36 5.66 16.72 6 14 C2.1469833 13.56215719 0.60965999 13.4397719 -2.3125 16.125 Z M23 25 C22.67 25.66 22.34 26.32 22 27 C19.93359375 27.4140625 19.93359375 27.4140625 17.4375 27.625 C16.61121094 27.69976563 15.78492188 27.77453125 14.93359375 27.8515625 C13.97646484 27.92503906 13.97646484 27.92503906 13 28 C12.67 29.32 12.34 30.64 12 32 C18.83981276 31.48378772 24.63876684 29.51409031 31 27 C31 26.67 31 26.34 31 26 C28.36 25.67 25.72 25.34 23 25 Z " fill="#EA891A" transform="translate(8,0)"/>
<path d="M0 0 C3.3 0 6.6 0 10 0 C9.34 3.3 8.68 6.6 8 10 C10.64 10.33 13.28 10.66 16 11 C15.85704109 12.39613065 15.71048442 13.79189308 15.5625 15.1875 C15.48128906 15.96480469 15.40007813 16.74210937 15.31640625 17.54296875 C14.99402379 20.04640786 14.49501895 22.52490524 14 25 C7.565 25.495 7.565 25.495 1 26 C1 25.01 1 24.02 1 23 C1.99 22.67 2.98 22.34 4 22 C4.80212628 20.12612784 4.80212628 20.12612784 5.1875 17.9375 C5.42533203 16.83728516 5.42533203 16.83728516 5.66796875 15.71484375 C5.77753906 15.14894531 5.88710937 14.58304688 6 14 C0.67437826 14.99162453 0.67437826 14.99162453 -3 18.75 C-4.14737972 22.47898411 -4.38206221 24.34160004 -3 28 C-0.04928156 29.93469849 -0.04928156 29.93469849 3 31 C2.67 32.32 2.34 33.64 2 35 C0.70590408 34.54857119 -0.58521059 34.08858979 -1.875 33.625 C-2.59429688 33.36976562 -3.31359375 33.11453125 -4.0546875 32.8515625 C-6 32 -6 32 -8 30 C-8.57765784 26.61918151 -8.52899726 23.38558248 -8 20 C-5.6875 17.25 -5.6875 17.25 -4.3125 15.9140625 C-1.23710076 11.42910528 -0.88883459 5.27519714 0 0 Z " fill="#0192DC" transform="translate(8,0)"/>
<path d="M0 0 C2.97 0 5.94 0 9 0 C8.48594831 4.96916636 7.76615118 9.29026351 6 14 C3.03 14 0.06 14 -3 14 C-3.33 15.32 -3.66 16.64 -4 18 C-1.7895859 17.40349099 0.41825403 16.7974391 2.625 16.1875 C3.85476562 15.85105469 5.08453125 15.51460937 6.3515625 15.16796875 C10.01232113 14.11403796 10.01232113 14.11403796 13.2109375 12.30078125 C16 11 16 11 18.375 11.3125 C18.91125 11.539375 19.4475 11.76625 20 12 C12.66996221 16.62152253 3.82106687 21 -5 21 C-5.33 22.32 -5.66 23.64 -6 25 C-8.97 25 -11.94 25 -15 25 C-14.71831703 23.04020573 -14.42433283 21.08217622 -14.125 19.125 C-13.96257813 18.03445312 -13.80015625 16.94390625 -13.6328125 15.8203125 C-13 13 -13 13 -11 11 C-8.8359375 10.8046875 -8.8359375 10.8046875 -6.375 10.875 C-5.14910156 10.90207031 -5.14910156 10.90207031 -3.8984375 10.9296875 C-2.95871094 10.96449219 -2.95871094 10.96449219 -2 11 C-1.93941406 10.37351562 -1.87882812 9.74703125 -1.81640625 9.1015625 C-1.73261719 8.28429688 -1.64882813 7.46703125 -1.5625 6.625 C-1.48128906 5.81289063 -1.40007813 5.00078125 -1.31640625 4.1640625 C-1 2 -1 2 0 0 Z " fill="#67B82E" transform="translate(24,14)"/>
<path d="M0 0 C0.53625 0.226875 1.0725 0.45375 1.625 0.6875 C-5.70503779 5.30902253 -14.55393313 9.6875 -23.375 9.6875 C-23.375 8.6975 -23.375 7.7075 -23.375 6.6875 C-22.36179687 6.43355469 -21.34859375 6.17960937 -20.3046875 5.91796875 C-18.95303342 5.57066874 -17.60147599 5.22299241 -16.25 4.875 C-15.58484375 4.70935547 -14.9196875 4.54371094 -14.234375 4.37304688 C-10.9087196 3.50902856 -8.2063745 2.59912399 -5.1328125 0.98828125 C-2.375 -0.3125 -2.375 -0.3125 0 0 Z " fill="#0093DC" transform="translate(42.375,25.3125)"/>
</svg>
