<svg width="878" height="348" viewBox="0 0 878 348" fill="none" xmlns="http://www.w3.org/2000/svg">
<path d="M172.802 128.955L25.3712 197.627C25.3712 197.627 15.5102 202.852 7.5742 194.283C-0.363062 185.714 -1.56525 185.955 3.00511 172.005C7.57421 158.056 36.9163 83.7392 36.9163 83.7392C36.9163 83.7392 37.8776 75.3213 68.6629 63.2969C99.4482 51.2711 199.499 10.3851 199.499 10.3851C199.499 10.3851 205.27 6.53634 212.246 13.5111C219.22 20.4858 226.195 27.9412 220.182 40.2079C214.169 52.4733 182.422 119.815 182.422 119.815C182.422 119.815 180.784 125.237 172.802 128.955Z" fill="#835844"/>
<path d="M20.0805 199.204C20.0805 199.204 11.6626 198.702 20.0805 181.145C28.4984 163.588 54.2327 100.575 54.2327 100.575C54.2327 100.575 55.4349 92.3981 73.4729 85.1824C91.5108 77.968 207.916 31.0685 207.916 31.0685C207.916 31.0685 216.461 26.9775 219.461 29.3844C222.459 31.7926 213.929 47.1827 213.929 47.1827L174.423 128.125C174.423 128.125 28.4984 195.859 20.0805 199.204Z" fill="#4C3329"/>
<path d="M73.4731 85.1821C55.4351 92.3978 54.2329 100.575 54.2329 100.575C54.2329 100.575 28.4987 163.587 20.0808 181.145C11.6629 198.702 20.0808 199.204 20.0808 199.204C26.6304 196.602 116.417 155.022 155.95 136.692L197.772 35.1554C169.056 46.7232 88.2527 79.2708 73.4731 85.1821Z" fill="#35241D"/>
<path d="M213.588 25.7519C213.391 25.7519 213.217 25.6094 213.184 25.4088C213.149 25.1855 213.3 24.9748 213.524 24.9383C215.095 24.6834 216.516 24.6443 217.722 24.8197C217.946 24.8525 218.1 25.0594 218.067 25.2827C218.036 25.5072 217.825 25.6661 217.605 25.6283C216.479 25.4656 215.142 25.5059 213.654 25.7469C213.632 25.7507 213.609 25.7519 213.588 25.7519ZM205.779 28.2459C205.618 28.2459 205.464 28.1475 205.4 27.9873C205.315 27.7779 205.417 27.5394 205.627 27.4562L207.764 26.5996C207.78 26.5933 208.444 26.3045 209.492 25.955C209.706 25.8856 209.937 25.9992 210.01 26.2136C210.081 26.4268 209.965 26.6589 209.75 26.7308C208.74 27.0677 208.087 27.3515 208.08 27.3553L205.932 28.2156C205.882 28.2345 205.83 28.2459 205.779 28.2459ZM222.228 29.0356C222.063 29.0356 221.906 28.9334 221.844 28.7694C221.627 28.1866 221.326 27.6769 220.952 27.2543C220.802 27.0866 220.818 26.828 220.987 26.6778C221.154 26.5277 221.413 26.5429 221.564 26.7132C222.006 27.2089 222.358 27.8056 222.611 28.483C222.69 28.695 222.582 28.9309 222.37 29.0103C222.324 29.0267 222.276 29.0356 222.228 29.0356ZM198.141 31.3037C197.978 31.3037 197.824 31.2066 197.761 31.0464C197.677 30.837 197.779 30.5985 197.988 30.514L201.804 28.9864C202.014 28.9044 202.252 29.004 202.337 29.2147C202.42 29.4241 202.318 29.6625 202.108 29.7458L198.292 31.2734C198.242 31.2936 198.192 31.3037 198.141 31.3037ZM190.519 34.3565C190.356 34.3565 190.203 34.2594 190.139 34.0992C190.055 33.8885 190.157 33.6514 190.367 33.5668L194.176 32.0404C194.386 31.9572 194.624 32.0581 194.709 32.2688C194.793 32.4782 194.691 32.7166 194.481 32.7998L190.671 34.3262C190.621 34.3464 190.57 34.3565 190.519 34.3565ZM182.904 37.4068C182.741 37.4068 182.588 37.3097 182.524 37.1494C182.439 36.9388 182.542 36.7016 182.751 36.6171L186.558 35.092C186.766 35.01 187.006 35.1096 187.09 35.3203C187.175 35.5297 187.072 35.7681 186.862 35.8514L183.055 37.3765C183.006 37.3967 182.954 37.4068 182.904 37.4068ZM175.293 40.4558C175.13 40.4558 174.976 40.3587 174.912 40.1984C174.829 39.9878 174.931 39.7494 175.14 39.6661L178.945 38.1422C179.153 38.0602 179.393 38.1586 179.476 38.3693C179.561 38.5787 179.46 38.8171 179.249 38.9016L175.444 40.4255C175.394 40.4457 175.344 40.4558 175.293 40.4558ZM167.683 43.5035C167.521 43.5035 167.367 43.4064 167.304 43.2475C167.22 43.0368 167.32 42.7984 167.531 42.7151L171.336 41.19C171.546 41.108 171.784 41.2076 171.868 41.417C171.951 41.6265 171.85 41.8649 171.641 41.9494L167.835 43.4745C167.785 43.4934 167.734 43.5035 167.683 43.5035ZM160.074 46.5526C159.912 46.5526 159.759 46.4554 159.695 46.2952C159.61 46.0858 159.712 45.8474 159.922 45.7629L163.725 44.239C163.936 44.1583 164.173 44.2554 164.258 44.4661C164.341 44.6767 164.24 44.9139 164.029 44.9984L160.226 46.5223C160.177 46.5425 160.125 46.5526 160.074 46.5526ZM152.466 49.6003C152.305 49.6003 152.151 49.5032 152.088 49.343C152.004 49.1336 152.106 48.8951 152.315 48.8106L156.117 47.2867C156.329 47.2047 156.566 47.3044 156.65 47.5151C156.734 47.7232 156.632 47.9616 156.422 48.0462L152.619 49.57C152.569 49.5902 152.518 49.6003 152.466 49.6003ZM144.861 52.648C144.7 52.648 144.546 52.5509 144.481 52.392C144.397 52.1813 144.499 51.9429 144.708 51.8596L148.513 50.3345C148.721 50.2512 148.961 50.3521 149.044 50.5616C149.127 50.771 149.026 51.0094 148.817 51.0939L145.014 52.619C144.963 52.638 144.911 52.648 144.861 52.648ZM137.254 55.6983C137.093 55.6983 136.939 55.6012 136.875 55.441C136.791 55.2303 136.893 54.9931 137.103 54.9086L140.906 53.3848C141.117 53.3015 141.354 53.4024 141.439 53.6118C141.522 53.8225 141.421 54.0597 141.21 54.1442L137.407 55.668C137.356 55.6882 137.306 55.6983 137.254 55.6983ZM129.663 58.7398C129.499 58.7398 129.342 58.6451 129.278 58.4849C129.195 58.2768 129.288 58.0409 129.497 57.9564L133.294 56.435C133.504 56.3518 133.744 56.4527 133.827 56.6621C133.91 56.8715 133.809 57.1099 133.598 57.1944L129.818 58.7095C129.767 58.7309 129.714 58.7398 129.663 58.7398ZM122.045 61.7963C121.882 61.7963 121.729 61.6992 121.665 61.539C121.58 61.3296 121.682 61.0912 121.892 61.0066L125.695 59.4815C125.906 59.3983 126.142 59.4992 126.228 59.7086C126.311 59.9192 126.209 60.1577 125.999 60.2409L122.196 61.7661C122.147 61.785 122.095 61.7963 122.045 61.7963ZM114.436 64.8453C114.275 64.8453 114.121 64.7495 114.058 64.5893C113.974 64.3799 114.076 64.1414 114.285 64.0569L118.087 62.5318C118.298 62.4485 118.535 62.5482 118.62 62.7589C118.704 62.9683 118.602 63.2067 118.393 63.2912L114.589 64.8163C114.539 64.8365 114.488 64.8453 114.436 64.8453ZM106.831 67.8969C106.668 67.8969 106.514 67.7997 106.45 67.6395C106.367 67.4314 106.468 67.193 106.678 67.1072L110.482 65.5821C110.691 65.4988 110.93 65.5985 111.013 65.8091C111.097 66.0185 110.996 66.2569 110.786 66.3415L106.982 67.8679C106.933 67.8868 106.881 67.8969 106.831 67.8969ZM99.2217 70.9497C99.0602 70.9497 98.9063 70.8525 98.842 70.6923C98.7588 70.4829 98.8597 70.2458 99.0703 70.1612L102.874 68.6336C103.083 68.5516 103.32 68.6512 103.405 68.8619C103.489 69.0713 103.388 69.3085 103.178 69.393L99.3744 70.9207C99.3239 70.9396 99.2722 70.9497 99.2217 70.9497ZM91.6124 74.005C91.451 74.005 91.2971 73.9079 91.2327 73.7476C91.1495 73.5382 91.2504 73.2998 91.4598 73.2153L95.2657 71.6889C95.4764 71.6044 95.7135 71.7066 95.7968 71.916C95.8813 72.1254 95.7804 72.3638 95.5697 72.4483L91.7651 73.976C91.7146 73.9949 91.6642 74.005 91.6124 74.005ZM83.9994 77.0628C83.8379 77.0628 83.684 76.9657 83.6209 76.8055C83.5364 76.5961 83.6386 76.3577 83.848 76.2731L87.6552 74.743C87.8658 74.661 88.1017 74.7619 88.1875 74.9713C88.2708 75.1807 88.1698 75.4191 87.9592 75.5024L84.1533 77.0326C84.1028 77.0527 84.0511 77.0628 83.9994 77.0628ZM76.3813 80.127C76.2185 80.127 76.0659 80.0298 76.0016 79.8709C75.9183 79.6615 76.0192 79.4231 76.2286 79.3386L80.0383 77.8046C80.249 77.7226 80.4861 77.8222 80.5719 78.0317C80.6552 78.2411 80.5543 78.4795 80.3449 78.564L76.5339 80.098C76.4835 80.1182 76.4317 80.127 76.3813 80.127ZM68.777 83.2328C68.6206 83.2328 68.4692 83.1432 68.4024 82.9906C68.3103 82.7824 68.4049 82.5415 68.6105 82.4494C69.2009 82.1882 69.8089 81.9309 70.4334 81.6773L72.4139 80.8763C72.6246 80.7943 72.863 80.8927 72.9462 81.1021C73.0308 81.3115 72.9311 81.5499 72.7204 81.6344L70.7412 82.4355C70.1243 82.6853 69.5251 82.9388 68.9423 83.1987C68.888 83.2227 68.8325 83.2328 68.777 83.2328ZM61.5929 87.1181C61.4592 87.1181 61.3292 87.0525 61.251 86.9327C61.1274 86.7435 61.1791 86.4899 61.3683 86.3663C62.481 85.6334 63.6731 84.9244 64.9106 84.2583C65.1086 84.1486 65.3584 84.2255 65.4656 84.4249C65.5716 84.6229 65.4972 84.8714 65.2991 84.9786C64.0818 85.6334 62.9111 86.3297 61.8174 87.05C61.748 87.0954 61.6698 87.1181 61.5929 87.1181ZM55.2892 92.299C55.1871 92.299 55.0861 92.2612 55.0067 92.1843C54.8439 92.0278 54.8376 91.7692 54.9953 91.6065C55.925 90.6389 56.9481 89.6979 58.038 88.8073C58.2108 88.6634 58.4707 88.6887 58.612 88.8653C58.7558 89.0394 58.7306 89.2967 58.5552 89.4393C57.4905 90.3097 56.4914 91.2293 55.5844 92.1729C55.505 92.2562 55.3965 92.299 55.2892 92.299ZM50.5448 98.9231C50.4843 98.9231 50.4212 98.9092 50.3631 98.8802C50.1613 98.7806 50.0781 98.5346 50.1777 98.3327C50.7744 97.1318 51.4985 95.9384 52.3336 94.7817C52.466 94.6 52.7221 94.5584 52.905 94.6896C53.0892 94.822 53.1296 95.0781 52.9971 95.261C52.1885 96.3812 51.4859 97.5367 50.9106 98.696C50.84 98.8399 50.6949 98.9231 50.5448 98.9231ZM47.6964 106.609C47.6434 106.609 47.5891 106.598 47.5387 106.577C47.3293 106.489 47.2309 106.251 47.3179 106.042L47.8578 104.754C48.2388 103.842 48.476 103.275 48.5428 103.115C48.5605 102.993 48.6072 102.694 48.7144 102.246C48.7674 102.026 48.9843 101.886 49.2076 101.943C49.4271 101.996 49.5621 102.217 49.5104 102.436C49.3855 102.956 49.3502 103.253 49.3489 103.266L49.3212 103.264C49.2644 103.51 49.0638 103.99 48.6122 105.069L48.0736 106.357C48.008 106.515 47.8566 106.609 47.6964 106.609ZM44.5288 114.186C44.4758 114.186 44.4228 114.174 44.3711 114.154C44.1617 114.066 44.0645 113.826 44.1516 113.618L45.7348 109.83C45.8218 109.621 46.0627 109.525 46.2696 109.61C46.4778 109.697 46.5762 109.937 46.4904 110.145L44.906 113.934C44.8404 114.091 44.689 114.186 44.5288 114.186ZM41.3688 121.757C41.3158 121.757 41.2628 121.747 41.2098 121.726C41.0017 121.639 40.9033 121.399 40.9903 121.19L42.571 117.405C42.658 117.196 42.8989 117.101 43.1058 117.184C43.314 117.273 43.4124 117.512 43.3266 117.72L41.7459 121.506C41.6803 121.663 41.5277 121.757 41.3688 121.757ZM38.21 129.326C38.157 129.326 38.104 129.316 38.0523 129.296C37.8442 129.209 37.7458 128.969 37.8316 128.76L39.4097 124.977C39.4967 124.767 39.7351 124.67 39.9445 124.755C40.154 124.842 40.2523 125.081 40.1653 125.291L38.5872 129.075C38.5216 129.232 38.3702 129.326 38.21 129.326ZM35.0563 136.895C35.0033 136.895 34.9503 136.885 34.8986 136.865C34.6905 136.778 34.5921 136.538 34.6778 136.33L36.2547 132.544C36.3417 132.335 36.5802 132.238 36.7896 132.323C36.9977 132.41 37.0961 132.65 37.0103 132.858L35.4335 136.644C35.3679 136.8 35.2165 136.895 35.0563 136.895ZM31.9063 144.465C31.8534 144.465 31.8004 144.455 31.7499 144.435C31.5405 144.348 31.4421 144.108 31.5292 143.9L33.1035 140.116C33.1905 139.906 33.4315 139.809 33.6384 139.895C33.8465 139.981 33.9449 140.22 33.8579 140.43L32.2835 144.214C32.2192 144.371 32.0666 144.465 31.9063 144.465ZM28.7615 152.035C28.7098 152.035 28.6555 152.025 28.605 152.004C28.3956 151.917 28.2973 151.678 28.3843 151.47L29.9561 147.682C30.0419 147.474 30.2803 147.377 30.491 147.461C30.6991 147.548 30.7988 147.788 30.7117 147.997L29.1399 151.783C29.0743 151.941 28.9217 152.035 28.7615 152.035ZM25.6216 159.611C25.5699 159.611 25.5169 159.601 25.4665 159.578C25.2571 159.493 25.1574 159.254 25.2445 159.044L26.8137 155.256C26.902 155.048 27.1392 154.948 27.3486 155.035C27.558 155.122 27.6564 155.362 27.5694 155.57L26.0001 159.357C25.9345 159.515 25.7831 159.611 25.6216 159.611ZM22.4906 167.191C22.4377 167.191 22.3847 167.181 22.3342 167.161C22.1248 167.074 22.0264 166.834 22.1109 166.626L23.6777 162.834C23.7622 162.624 24.0006 162.526 24.2113 162.613C24.4194 162.7 24.5191 162.938 24.4333 163.148L22.8678 166.937C22.8035 167.095 22.6508 167.191 22.4906 167.191ZM19.371 174.783C19.3193 174.783 19.2663 174.772 19.2158 174.751C19.0064 174.665 18.9067 174.427 18.9925 174.217L20.5492 170.42C20.6337 170.211 20.8709 170.112 21.0828 170.197C21.291 170.283 21.3919 170.522 21.3061 170.731L19.7494 174.528C19.6851 174.687 19.5324 174.783 19.371 174.783ZM16.293 182.394C16.2425 182.394 16.192 182.385 16.1428 182.365C15.9322 182.283 15.8287 182.045 15.912 181.835L15.9599 181.713C16.3485 180.732 16.8493 179.487 17.4434 178.021C17.5279 177.811 17.7701 177.712 17.9758 177.795C18.1852 177.881 18.2861 178.119 18.2016 178.329C17.6087 179.791 17.1079 181.036 16.7193 182.017L16.6727 182.134C16.6096 182.296 16.4557 182.394 16.293 182.394ZM13.4975 190.079C13.4559 190.079 13.413 190.073 13.3714 190.059C13.1556 189.99 13.0383 189.759 13.1077 189.544C13.4899 188.361 13.9428 187.057 14.4512 185.667C14.5294 185.455 14.7653 185.345 14.976 185.423C15.1879 185.5 15.2964 185.735 15.2194 185.948C14.7136 187.327 14.2657 188.622 13.886 189.797C13.8305 189.97 13.6691 190.079 13.4975 190.079ZM11.903 198.047C11.744 198.047 11.5901 197.952 11.5182 197.803C11.4779 197.719 11.411 197.504 11.411 197.022C11.411 196.211 11.6027 194.994 11.9673 193.499C12.0216 193.281 12.2398 193.142 12.4606 193.199C12.6813 193.252 12.8163 193.474 12.7621 193.693C12.3218 195.502 12.2297 196.501 12.2297 197.022C12.2297 197.354 12.2675 197.475 12.2688 197.478C12.3659 197.682 12.2739 197.913 12.0682 198.009C12.0153 198.035 11.9598 198.047 11.903 198.047Z" fill="#E1C37D"/>
<path d="M30.7262 99.4769L45.2712 95.5713L36.6855 116.228L23.7944 117.198L30.7262 99.4769Z" fill="#F6F6F2"/>
<path d="M5.47192 165.03C5.47192 165.03 20.4256 159.538 13.5858 143.553L5.47192 165.03Z" fill="#EF4E55"/>
<path d="M17.5219 196.799V229.217C17.5219 229.217 17.0097 241.386 28.8727 250.692C40.7357 259.998 95.0376 307.859 95.0376 307.859C95.0376 307.859 110.479 327.288 137.171 311.744C163.862 296.199 255.491 244.556 255.491 244.556C255.491 244.556 271.648 236.478 271.75 224.104C271.852 211.729 273.08 192.708 273.08 192.708C273.08 192.708 274.512 187.697 273.08 183.812C271.648 179.925 260.808 174.403 260.808 174.403L179.814 124.294C179.814 124.294 169.998 120.203 161.1 124.294C152.204 128.385 25.4982 186.982 25.4982 186.982C25.4982 186.982 17.1131 190.049 17.5219 196.799Z" fill="#835844"/>
<path d="M47.7118 241.804C47.7118 247.435 43.9097 252.001 39.2195 252.001C34.5281 252.001 30.726 247.435 30.726 241.804C30.726 236.172 34.5281 231.606 39.2195 231.606C43.9097 231.606 47.7118 236.172 47.7118 241.804Z" fill="#78D5F9"/>
<path d="M40.6345 247.699L59.7435 245.682L63.6364 265.115L47.0038 266.272L40.6345 247.699Z" fill="#EF4E55"/>
<path d="M72.7839 265.053L101.854 287.496V299.77L72.7839 276.622V265.053Z" fill="#F6F6F2"/>
<path d="M24.781 191.425L163.009 126.901C163.009 126.901 170.083 122.559 179.265 127.77C188.447 132.981 265.379 180.01 265.379 180.01C265.379 180.01 277.043 187.081 263.766 194.402C250.488 201.723 127.646 268.233 127.646 268.233C127.646 268.233 115.609 274.684 101.34 263.269C87.0706 251.852 24.1603 199.738 24.1603 199.738C24.1603 199.738 17.9954 194.592 24.781 191.425Z" fill="#35241D"/>
<path d="M140.727 282.942V296.852L160.017 285.567V272.056L140.727 282.942Z" fill="#E1C37D"/>
<path d="M174.075 264.793V274.194L187.112 266.567V257.436L174.075 264.793Z" fill="#E1C37D"/>
<path d="M214.48 242.065V251.466L227.517 243.839V234.708L214.48 242.065Z" fill="#E1C37D"/>
<path d="M237.839 225.068V238.979L257.129 227.692V213.974L237.839 225.068Z" fill="#E1C37D"/>
<path d="M116.822 279.952C103.626 279.952 96.5865 271.715 96.4868 271.596L17.2428 204.304C17.07 204.158 17.0486 203.899 17.1949 203.728C17.3412 203.556 17.6011 203.532 17.7714 203.681L97.0671 271.023C97.1516 271.115 100.637 275.246 107.233 277.579C113.319 279.731 123.385 280.75 136.77 273.382C162.683 259.116 271.488 197.887 272.584 197.27C272.783 197.162 273.03 197.23 273.141 197.427C273.252 197.622 273.182 197.872 272.985 197.983C271.889 198.601 163.081 259.832 137.165 274.097C129.292 278.433 122.489 279.952 116.822 279.952Z" fill="#4C3329"/>
<path d="M19.066 202.381C18.9727 202.381 18.8793 202.351 18.8011 202.284L17.2419 200.961C17.0704 200.816 17.0489 200.557 17.1953 200.385C17.3416 200.214 17.5989 200.19 17.7718 200.338L19.331 201.661C19.5038 201.806 19.524 202.066 19.3789 202.238C19.2982 202.332 19.1821 202.381 19.066 202.381Z" fill="#E1C37D"/>
<path d="M264.068 199.597C263.924 199.597 263.786 199.522 263.711 199.389C263.6 199.193 263.671 198.943 263.866 198.832L267.452 196.815C267.651 196.708 267.899 196.776 268.009 196.972C268.119 197.167 268.05 197.417 267.853 197.528L264.269 199.545C264.205 199.58 264.136 199.597 264.068 199.597ZM256.906 203.626C256.762 203.626 256.623 203.552 256.549 203.418C256.438 203.222 256.507 202.972 256.704 202.86L260.284 200.847C260.483 200.738 260.73 200.805 260.841 201.003C260.951 201.2 260.882 201.449 260.685 201.56L257.105 203.574C257.042 203.61 256.972 203.626 256.906 203.626ZM249.747 207.649C249.604 207.649 249.465 207.574 249.39 207.441C249.279 207.244 249.349 206.995 249.545 206.884L253.124 204.872C253.322 204.764 253.571 204.831 253.681 205.029C253.792 205.224 253.723 205.474 253.526 205.585L249.947 207.597C249.884 207.632 249.815 207.649 249.747 207.649ZM25.312 207.687C25.2187 207.687 25.1241 207.655 25.0471 207.588L21.9237 204.937C21.7521 204.79 21.732 204.532 21.8783 204.36C22.0234 204.19 22.2832 204.166 22.4535 204.313L25.577 206.966C25.7485 207.113 25.77 207.37 25.6236 207.542C25.5429 207.639 25.4281 207.687 25.312 207.687ZM242.59 211.673C242.446 211.673 242.308 211.597 242.233 211.465C242.122 211.268 242.192 211.018 242.388 210.907L245.967 208.896C246.165 208.785 246.414 208.856 246.524 209.053C246.635 209.251 246.565 209.499 246.367 209.609L242.791 211.621C242.728 211.655 242.657 211.673 242.59 211.673ZM31.5577 212.991C31.4643 212.991 31.3697 212.958 31.2928 212.894L28.1706 210.241C27.9978 210.095 27.9763 209.836 28.1226 209.665C28.269 209.489 28.5288 209.47 28.6991 209.618L31.8226 212.27C31.9941 212.417 32.0156 212.675 31.8693 212.846C31.7885 212.941 31.6725 212.991 31.5577 212.991ZM235.436 215.695C235.293 215.695 235.154 215.62 235.079 215.485C234.968 215.288 235.038 215.04 235.236 214.93L238.812 212.919C239.011 212.811 239.259 212.879 239.37 213.076C239.479 213.273 239.41 213.524 239.213 213.632L235.636 215.642C235.573 215.678 235.503 215.695 235.436 215.695ZM37.8033 218.294C37.7099 218.294 37.6153 218.263 37.5384 218.197L34.4149 215.544C34.2434 215.398 34.2219 215.141 34.3695 214.969C34.5146 214.798 34.7732 214.775 34.946 214.923L38.0682 217.574C38.2397 217.722 38.2612 217.979 38.1149 218.151C38.0341 218.247 37.9193 218.294 37.8033 218.294ZM228.281 219.714C228.139 219.714 227.999 219.639 227.924 219.506C227.814 219.307 227.884 219.058 228.081 218.948L231.658 216.94C231.856 216.83 232.106 216.898 232.215 217.096C232.326 217.293 232.256 217.541 232.058 217.652L228.482 219.662C228.417 219.696 228.349 219.714 228.281 219.714ZM44.0489 223.599C43.9555 223.599 43.8609 223.567 43.784 223.502L40.6605 220.849C40.489 220.703 40.4688 220.445 40.6151 220.272C40.7602 220.1 41.0201 220.078 41.1904 220.227L44.3138 222.879C44.4854 223.025 44.5068 223.284 44.3605 223.455C44.281 223.55 44.165 223.599 44.0489 223.599ZM221.127 223.73C220.985 223.73 220.846 223.657 220.77 223.522C220.659 223.327 220.73 223.078 220.927 222.966L224.503 220.956C224.7 220.848 224.95 220.916 225.061 221.113C225.172 221.308 225.101 221.559 224.904 221.67L221.328 223.679C221.265 223.715 221.195 223.73 221.127 223.73ZM213.973 227.749C213.83 227.749 213.691 227.674 213.615 227.541C213.505 227.343 213.575 227.093 213.772 226.984L217.349 224.977C217.547 224.866 217.796 224.934 217.907 225.133C218.016 225.33 217.947 225.578 217.75 225.688L214.173 227.698C214.108 227.732 214.04 227.749 213.973 227.749ZM50.2945 228.901C50.2011 228.901 50.1065 228.871 50.0296 228.805L46.9074 226.152C46.7346 226.006 46.7144 225.747 46.8595 225.576C47.0058 225.404 47.2644 225.382 47.436 225.529L50.5594 228.182C50.731 228.328 50.7524 228.586 50.6061 228.759C50.5254 228.854 50.4106 228.901 50.2945 228.901ZM206.82 231.765C206.676 231.765 206.537 231.69 206.461 231.556C206.352 231.36 206.421 231.11 206.618 231L210.195 228.993C210.393 228.882 210.642 228.953 210.753 229.15C210.863 229.346 210.793 229.597 210.596 229.707L207.019 231.713C206.956 231.748 206.886 231.765 206.82 231.765ZM56.5401 234.206C56.4468 234.206 56.3522 234.175 56.2752 234.108L53.153 231.456C52.9802 231.31 52.9588 231.052 53.1063 230.88C53.2502 230.71 53.5113 230.686 53.6828 230.834L56.805 233.487C56.9766 233.633 56.998 233.89 56.8517 234.063C56.771 234.156 56.6562 234.206 56.5401 234.206ZM199.658 235.782C199.514 235.782 199.376 235.708 199.301 235.574C199.19 235.378 199.259 235.128 199.458 235.018L203.041 233.008C203.239 232.899 203.488 232.968 203.598 233.165C203.709 233.362 203.639 233.611 203.441 233.721L199.857 235.731C199.794 235.766 199.726 235.782 199.658 235.782ZM62.7857 239.51C62.6924 239.51 62.5978 239.48 62.5208 239.413L59.3974 236.76C59.2258 236.614 59.2056 236.356 59.352 236.184C59.4983 236.015 59.7569 235.989 59.9285 236.138L63.0506 238.79C63.2235 238.936 63.2436 239.195 63.0973 239.366C63.0178 239.462 62.9018 239.51 62.7857 239.51ZM192.516 239.791C192.372 239.791 192.233 239.716 192.157 239.582C192.048 239.385 192.117 239.135 192.314 239.026L195.882 237.024C196.081 236.915 196.329 236.983 196.439 237.18C196.55 237.378 196.479 237.628 196.282 237.738L192.715 239.738C192.651 239.774 192.582 239.791 192.516 239.791ZM185.357 243.802C185.213 243.802 185.074 243.727 185 243.592C184.889 243.396 184.959 243.146 185.156 243.036L188.734 241.03C188.933 240.92 189.18 240.99 189.291 241.187C189.402 241.383 189.33 241.634 189.135 241.744L185.556 243.749C185.493 243.784 185.425 243.802 185.357 243.802ZM69.0313 244.815C68.938 244.815 68.8434 244.784 68.7664 244.718L65.6442 242.066C65.4714 241.918 65.4513 241.661 65.5976 241.488C65.7427 241.318 66.0013 241.294 66.1728 241.441L69.2962 244.094C69.4678 244.241 69.4893 244.498 69.3429 244.671C69.2622 244.765 69.1474 244.815 69.0313 244.815ZM178.199 247.814C178.055 247.814 177.916 247.74 177.841 247.606C177.731 247.41 177.802 247.16 177.998 247.05L181.579 245.046C181.777 244.936 182.025 245.006 182.135 245.202C182.245 245.399 182.174 245.649 181.977 245.758L178.397 247.763C178.335 247.797 178.266 247.814 178.199 247.814ZM75.2769 250.118C75.1836 250.118 75.0877 250.088 75.0108 250.022L71.8886 247.37C71.717 247.223 71.6956 246.964 71.8419 246.794C71.9883 246.622 72.2469 246.598 72.4184 246.746L75.5419 249.399C75.7134 249.545 75.7349 249.803 75.5873 249.975C75.5078 250.071 75.3917 250.118 75.2769 250.118ZM171.04 251.822C170.896 251.822 170.757 251.748 170.682 251.614C170.572 251.417 170.643 251.166 170.839 251.057L174.42 249.056C174.618 248.946 174.867 249.015 174.976 249.212C175.087 249.409 175.016 249.658 174.818 249.769L171.239 251.771C171.176 251.806 171.107 251.822 171.04 251.822ZM81.5226 255.423C81.4279 255.423 81.3346 255.392 81.2576 255.325L78.1342 252.674C77.9626 252.526 77.9412 252.269 78.0875 252.098C78.2326 251.926 78.4937 251.903 78.664 252.052L81.7875 254.703C81.959 254.85 81.9805 255.107 81.8341 255.279C81.7534 255.373 81.6374 255.423 81.5226 255.423ZM163.877 255.83C163.734 255.83 163.595 255.754 163.519 255.621C163.409 255.423 163.48 255.174 163.677 255.063L167.258 253.061C167.457 252.95 167.706 253.022 167.814 253.217C167.925 253.415 167.854 253.665 167.657 253.775L164.075 255.777C164.014 255.812 163.944 255.83 163.877 255.83ZM156.71 259.833C156.567 259.833 156.427 259.758 156.353 259.622C156.242 259.425 156.313 259.178 156.51 259.067L160.094 257.065C160.292 256.955 160.541 257.026 160.65 257.221C160.76 257.418 160.69 257.668 160.493 257.779L156.909 259.78C156.846 259.816 156.778 259.833 156.71 259.833ZM87.7682 260.727C87.6736 260.727 87.5802 260.697 87.5033 260.63L84.3798 257.978C84.2083 257.832 84.1868 257.573 84.3331 257.402C84.4782 257.23 84.7381 257.206 84.9096 257.355L88.0331 260.007C88.2046 260.153 88.2261 260.412 88.0798 260.583C87.999 260.679 87.883 260.727 87.7682 260.727ZM149.539 263.83C149.395 263.83 149.255 263.756 149.181 263.62C149.071 263.423 149.142 263.174 149.34 263.065L152.926 261.065C153.124 260.955 153.373 261.026 153.483 261.222C153.592 261.42 153.522 261.669 153.325 261.778L149.737 263.78C149.674 263.814 149.606 263.83 149.539 263.83ZM94.0138 266.03C93.9204 266.03 93.8246 265.999 93.7489 265.932L90.6254 263.282C90.4539 263.135 90.4324 262.877 90.5788 262.705C90.7251 262.534 90.985 262.511 91.1553 262.658L94.2787 265.31C94.4503 265.456 94.4717 265.715 94.3241 265.887C94.2446 265.981 94.1286 266.03 94.0138 266.03ZM142.359 267.824C142.214 267.824 142.075 267.748 141.999 267.614C141.891 267.417 141.963 267.168 142.16 267.057L145.751 265.064C145.952 264.952 146.199 265.029 146.307 265.223C146.417 265.42 146.346 265.67 146.148 265.779L142.556 267.772C142.493 267.809 142.426 267.824 142.359 267.824ZM100.194 271.411C100.111 271.411 100.026 271.385 99.9541 271.334C98.347 270.167 97.2886 269.12 96.7991 268.6C96.644 268.435 96.6528 268.176 96.8181 268.021C96.9821 267.87 97.2407 267.875 97.3958 268.037C97.8638 268.539 98.8819 269.545 100.435 270.67C100.618 270.804 100.658 271.06 100.526 271.243C100.445 271.353 100.32 271.411 100.194 271.411ZM135.152 271.764C135.002 271.764 134.858 271.683 134.786 271.541C134.684 271.34 134.766 271.091 134.967 270.991C135.561 270.69 136.161 270.372 136.769 270.038L138.563 269.049C138.761 268.937 139.01 269.012 139.119 269.208C139.228 269.406 139.157 269.656 138.959 269.766L137.164 270.755C136.549 271.094 135.938 271.414 135.336 271.721C135.277 271.751 135.214 271.764 135.152 271.764ZM127.587 274.886C127.413 274.886 127.251 274.774 127.197 274.601C127.129 274.385 127.249 274.154 127.463 274.086C128.711 273.694 129.994 273.225 131.277 272.695C131.485 272.606 131.726 272.706 131.812 272.917C131.899 273.125 131.799 273.363 131.59 273.449C130.285 273.989 128.98 274.466 127.711 274.867C127.669 274.88 127.627 274.886 127.587 274.886ZM107.452 275.152C107.408 275.152 107.364 275.145 107.321 275.131C106.005 274.684 104.717 274.139 103.495 273.508C103.295 273.406 103.216 273.16 103.32 272.958C103.423 272.758 103.673 272.678 103.87 272.782C105.057 273.392 106.306 273.921 107.585 274.356C107.798 274.429 107.913 274.661 107.84 274.875C107.782 275.045 107.623 275.152 107.452 275.152ZM119.574 276.522C119.365 276.522 119.185 276.362 119.168 276.149C119.148 275.924 119.314 275.726 119.539 275.706C120.849 275.591 122.195 275.391 123.541 275.113C123.765 275.068 123.979 275.209 124.025 275.43C124.07 275.652 123.929 275.867 123.707 275.914C122.33 276.198 120.952 276.402 119.611 276.521C119.599 276.522 119.585 276.522 119.574 276.522ZM115.482 276.622H115.467C114.079 276.568 112.69 276.415 111.342 276.17C111.118 276.129 110.972 275.917 111.012 275.693C111.053 275.471 111.272 275.33 111.488 275.364C112.8 275.602 114.15 275.751 115.498 275.806C115.724 275.813 115.899 276.004 115.892 276.229C115.883 276.45 115.701 276.622 115.482 276.622Z" fill="#E1C37D"/>
<path d="M271.008 195.692C270.866 195.692 270.727 195.616 270.651 195.483C270.54 195.287 270.611 195.037 270.806 194.926L272.584 193.926C272.783 193.818 273.03 193.886 273.141 194.081C273.252 194.278 273.182 194.528 272.985 194.64L271.209 195.639C271.145 195.674 271.076 195.692 271.008 195.692Z" fill="#E1C37D"/>
<path d="M177.973 268.088C177.973 268.088 179.897 264.361 184.226 264.72C184.226 264.72 184.587 276.626 192.764 274.461C200.942 272.297 223.271 261.835 219.581 245.721C219.581 245.721 221.504 240.79 224.632 241.992C224.632 241.992 228.96 260.151 215.131 269.531C201.303 278.911 191.322 287.328 182.422 280.234C182.422 280.234 178.454 277.828 177.973 268.088Z" fill="#35241D"/>
<path d="M142.343 295.907V284.454L160.018 274.193V272.057L140.727 282.942V296.852L142.343 295.907Z" fill="#B7934B"/>
<path d="M237.839 238.979V225.069L257.129 213.974V216.525L239.619 226.477L239.769 237.849L237.839 238.979Z" fill="#B7934B"/>
<path d="M174.075 274.194V264.793L187.112 257.436V258.571L175.017 265.815L175.022 273.641L174.075 274.194Z" fill="#B7934B"/>
<path d="M214.48 251.466L215.818 250.684V242.546L227.517 235.854V234.708L214.48 242.065V251.466Z" fill="#B7934B"/>
<path d="M106.302 50.9528L111.408 58.8043L157.079 40.3147L151.589 32.211L106.302 50.9528Z" fill="#E1C37D"/>
<path d="M106.302 50.9528L111.408 58.8043L157.079 40.3147L156.377 39.2816L112.012 57.6248L107.469 50.4697L106.302 50.9528Z" fill="#B7934B"/>
<path d="M133.702 47.3907L132.212 48.0164L129.68 41.9789L131.169 41.3545L133.702 47.3907Z" fill="#604A23"/>
<path d="M129.793 42.2511L131.032 41.7453L133.454 47.4951L132.212 48.0161L129.793 42.2511Z" fill="#443317"/>
<mask id="mask0_6_168" style="mask-type:luminance" maskUnits="userSpaceOnUse" x="293" y="216" width="585" height="132">
<path d="M293.569 216.258H878V347.515H293.569V216.258Z" fill="white"/>
</mask>
<g mask="url(#mask0_6_168)">
<g opacity="0.5">
<path d="M293.568 347.515L780.595 338.135L878.001 216.259L460.241 251.466L293.568 347.515Z" fill="#262320"/>
</g>
</g>
<mask id="mask1_6_168" style="mask-type:luminance" maskUnits="userSpaceOnUse" x="138" y="253" width="156" height="95">
<path d="M138.004 253.483H293.569V347.515H138.004V253.483Z" fill="white"/>
</mask>
<g mask="url(#mask1_6_168)">
<g opacity="0.5">
<path d="M293.569 347.515L161.494 297.779L138.005 262.623L154.882 253.483L293.569 347.515Z" fill="#262320"/>
</g>
</g>
<path d="M106.695 234.708L293.569 347.515L460.24 251.466L287.198 143.849L106.695 234.708Z" fill="#F6F6F2"/>
<path d="M293.568 347.515L616.089 305.668L726.48 194.284L460.241 251.466L293.568 347.515Z" fill="#DDDDD0"/>
<path d="M616.088 305.668L780.594 338.135L878 216.259L726.48 194.284L616.088 305.668Z" fill="#F6F6F2"/>
<path d="M106.695 234.708L60.1437 229.487L209.999 146.257L287.198 143.849L106.695 234.708Z" fill="#DDDDD0"/>
<path d="M60.1432 229.487L72.7845 158.477L220.999 92.678L209.999 146.256L60.1432 229.487Z" fill="#F6F6F2"/>
<path d="M72.7839 158.477L41.774 214.399L60.1425 229.487L72.7839 158.477Z" fill="#6B685B"/>
<path d="M79.0445 155.698L68.4846 224.854L202.961 150.165L214.48 95.5717L79.0445 155.698Z" fill="#CAEC58"/>
<path d="M98.783 172.318C101.115 167.842 104.024 163.684 106.325 159.192C108.628 154.7 110.331 149.727 109.984 144.692C109.943 144.111 109.817 143.19 109.605 142.13L99.4642 146.633C101.618 150.258 102.277 154.806 100.901 158.807C100.365 160.364 99.4743 161.914 97.9996 162.648C96.8037 163.245 95.4035 163.219 94.0676 163.178C90.8243 163.081 87.4095 162.936 84.6531 161.226C82.5805 159.94 81.1071 157.905 79.3246 156.241C79.2224 156.146 79.1102 156.056 79.0042 155.963L77.9647 162.77C79.7813 163.091 81.5789 163.873 83.1709 164.826C87.248 167.266 90.924 171.179 91.1775 175.923C91.3087 178.387 90.5077 180.79 89.8012 183.153C86.6904 193.561 85.2927 204.473 85.6295 215.333L93.9919 210.688C92.685 207.136 92.2233 203.219 92.2081 199.403C92.169 190.021 94.446 180.637 98.783 172.318Z" fill="#78D5F9"/>
<path d="M68.4845 224.854L118.22 228.907L278.2 148.378L202.963 150.165L68.4845 224.854Z" fill="#9EBD44"/>
<path d="M118.22 228.907L305.558 340.607L452.01 256.209L278.2 148.378L118.22 228.907Z" fill="#CAEC58"/>
<path d="M160.018 207.867C160.018 207.867 193.803 240.847 237.839 203.266C281.875 165.684 332.791 182.246 332.791 182.246L339.904 186.658C339.904 186.658 305.202 180.596 295.653 188.643C286.103 196.689 307.774 208.198 319.37 203.03C330.967 197.863 357.583 197.627 357.583 197.627L366.735 203.304C366.735 203.304 342.241 204.91 325.564 211.72C308.887 218.534 289.861 211.843 281.406 197.218C281.406 197.218 269.647 188.234 253.682 205.028C237.715 221.821 214.843 232.468 180.594 228.907C180.594 228.907 164.431 226.52 157.384 218.063C157.384 218.063 153.249 213.688 143.238 216.313L160.018 207.867Z" fill="#78D5F9"/>
<path d="M313.474 332.635C322.211 327.254 331.26 321.573 336.697 312.871C342.135 304.171 342.723 291.514 335.203 284.532C329.644 279.368 321.24 278.578 313.747 279.773C306.255 280.968 299.106 283.84 291.609 285.011C281.115 286.651 270.106 284.808 260.717 279.842C253.546 276.049 247.323 270.514 239.815 267.445C227.719 262.502 210.392 265.26 201.418 275.328C200.762 276.065 200.216 276.796 199.757 277.523L302.999 339.08C303.184 338.969 303.37 338.858 303.554 338.744C306.86 336.708 310.168 334.671 313.474 332.635Z" fill="#78D5F9"/>
<path d="M305.558 340.606L624.825 296.852L721.365 199.445L452.01 256.209L305.558 340.606Z" fill="#9EBD44"/>
<path d="M624.825 296.852L771.514 325.372L859.803 221.355L721.365 199.446L624.825 296.852Z" fill="#CAEC58"/>
<mask id="mask2_6_168" style="mask-type:luminance" maskUnits="userSpaceOnUse" x="133" y="128" width="671" height="183">
<path d="M133.244 128.286H803.646V310.665H133.244V128.286Z" fill="white"/>
</mask>
<g mask="url(#mask2_6_168)">
<g opacity="0.399994">
<path d="M147.066 128.917C148.258 129.332 149.307 129.892 150.221 130.574" stroke="#262320" stroke-width="1.33333" stroke-linecap="round" stroke-linejoin="round"/>
<path d="M154.299 136.291C156.773 143.245 154.552 153.116 149.989 159.758C144.597 167.608 137.071 175.157 134.654 183.923" stroke="#262320" stroke-width="1.33333" stroke-linecap="round" stroke-linejoin="round" stroke-dasharray="7.53 7.53"/>
<path d="M133.986 187.417C133.862 188.583 133.838 189.771 133.929 190.986C134.981 190.425 136.032 189.863 137.083 189.302" stroke="#262320" stroke-width="1.33333" stroke-linecap="round" stroke-linejoin="round"/>
<path d="M143.513 185.867C154.95 179.759 166.387 173.65 177.823 167.541C183.212 164.663 188.857 161.713 194.967 161.572C201.075 161.431 207.738 165.055 208.902 171.053C210.155 177.508 204.983 183.188 202.032 189.065C194.809 203.46 201.568 221.921 213.985 232.177C226.403 242.435 243.029 245.996 259.089 247.213C292.781 249.77 326.604 243.495 360.36 244.997C373.707 245.588 389.436 249.181 394.305 261.622C397.738 270.393 394.207 279.883 388.915 288.054" stroke="#262320" stroke-width="1.33333" stroke-linecap="round" stroke-linejoin="round" stroke-dasharray="7.71 7.71"/>
<path d="M386.853 291.06C386.147 292.035 385.424 292.986 384.693 293.91C385.393 294.894 386.16 295.804 386.987 296.647" stroke="#262320" stroke-width="1.33333" stroke-linecap="round" stroke-linejoin="round"/>
<path d="M392.758 301.045C398.791 304.505 406.204 306.094 413.211 307.134C479.948 317.045 550.169 301.301 606.288 263.848C627.995 249.362 651.453 230.861 676.549 232.781" stroke="#262320" stroke-width="1.33333" stroke-linecap="round" stroke-linejoin="round" stroke-dasharray="7.69 7.69"/>
<path d="M680.167 233.2C681.334 233.382 682.504 233.609 683.675 233.885C683.768 235.079 683.896 236.267 684.06 237.445" stroke="#262320" stroke-width="1.33333" stroke-linecap="round" stroke-linejoin="round"/>
<path d="M685.418 244.283C692.196 270.426 716.124 291.562 743.109 295.83C757.432 298.094 772.829 295.957 784.819 287.801C796.809 279.646 804.706 264.947 802.707 250.584C800.707 236.221 787.587 223.618 773.096 224.154C761.013 224.602 750.266 235.488 749.458 247.141" stroke="#262320" stroke-width="1.33333" stroke-linecap="round" stroke-linejoin="round" stroke-dasharray="7.37 7.37"/>
<path d="M749.52 250.625C749.646 251.797 749.878 252.963 750.228 254.122" stroke="#262320" stroke-width="1.33333" stroke-linecap="round" stroke-linejoin="round"/>
</g>
</g>
<path d="M452.336 277.147C454.886 281.398 459.798 283.831 464.723 284.399C469.648 284.965 474.614 283.893 479.361 282.463C483.949 281.079 488.618 279.333 493.384 279.825C495.786 280.072 498.088 280.882 500.418 281.511C513.001 284.915 526.576 283.044 538.754 278.393C550.931 273.744 561.911 266.453 572.476 258.82C581.671 252.176 590.715 245.179 600.91 240.208C613.147 234.242 626.624 231.391 639.947 228.596C646.158 227.291 652.423 225.981 658.77 225.997C662.389 226.007 666.037 226.448 669.608 225.861C676.719 224.692 682.622 219.57 686.778 213.685C688.563 211.158 690.086 208.473 691.525 205.734L452.01 256.208L449.719 257.529C449.847 259.604 449.945 261.664 449.934 263.687C449.913 268.304 449.96 273.186 452.336 277.147Z" fill="#CBB08F"/>
<path d="M467.467 274.684C481.214 282.133 497.663 263.505 512.509 268.412C514.641 269.117 516.597 270.288 518.731 270.984C529.418 274.475 539.725 265.615 548.265 258.302C560.574 247.763 574.658 239.026 590.187 234.396C606.393 229.562 623.602 229.329 640.143 225.805C652.529 223.166 665.165 218.082 674.051 209.416L459.406 254.65C459.282 255.39 459.186 256.145 459.135 256.917C458.667 263.815 461.389 271.391 467.467 274.684Z" fill="#F5E4BB"/>
<path d="M327.398 117.528H293.988V107.274C293.988 102.489 293.561 99.4411 292.706 98.1309C291.852 96.8206 290.427 96.1655 288.434 96.1655C286.269 96.1655 284.617 97.0485 283.478 98.8145C282.395 100.58 281.854 103.258 281.854 106.847C281.854 111.461 282.481 114.936 283.734 117.271C284.93 119.607 288.32 122.427 293.902 125.731C309.91 135.244 319.993 143.049 324.151 149.144C328.31 155.239 330.389 165.066 330.389 178.624C330.389 188.479 329.221 195.742 326.886 200.414C324.607 205.085 320.164 209.015 313.556 212.206C306.948 215.339 299.257 216.905 290.484 216.905C280.857 216.905 272.625 215.082 265.79 211.437C259.011 207.791 254.567 203.148 252.459 197.508C250.352 191.869 249.298 183.865 249.298 173.497V164.439H282.708V181.273C282.708 186.457 283.164 189.789 284.076 191.271C285.044 192.752 286.725 193.492 289.117 193.492C291.51 193.492 293.276 192.552 294.415 190.672C295.611 188.792 296.209 186.001 296.209 182.298C296.209 174.152 295.099 168.826 292.877 166.319C290.598 163.813 284.987 159.626 276.043 153.758C267.1 147.834 261.175 143.533 258.27 140.855C255.365 138.178 252.944 134.475 251.007 129.747C249.127 125.019 248.187 118.98 248.187 111.632C248.187 101.036 249.526 93.2887 252.203 88.3896C254.938 83.4906 259.324 79.6738 265.362 76.9395C271.401 74.1481 278.692 72.7524 287.237 72.7524C296.58 72.7524 304.527 74.262 311.078 77.2812C317.686 80.3005 322.044 84.1172 324.151 88.7314C326.316 93.2887 327.398 101.065 327.398 112.059V117.528ZM377.728 75.6577V214H341.754V75.6577H377.728ZM515.899 75.6577H575.885V103.343H551.874V129.576H574.347V155.895H551.874V186.314H578.277V214H515.899V75.6577ZM672.699 135.985H636.725V111.888C636.725 104.881 636.326 100.523 635.528 98.8145C634.788 97.0485 633.107 96.1655 630.487 96.1655C627.525 96.1655 625.645 97.2194 624.847 99.3271C624.05 101.435 623.651 105.992 623.651 112.999V177.257C623.651 183.979 624.05 188.365 624.847 190.416C625.645 192.467 627.439 193.492 630.23 193.492C632.908 193.492 634.645 192.467 635.443 190.416C636.297 188.365 636.725 183.552 636.725 175.975V158.629H672.699V164.012C672.699 178.311 671.673 188.451 669.623 194.432C667.629 200.414 663.157 205.654 656.207 210.155C649.314 214.655 640.798 216.905 630.658 216.905C620.119 216.905 611.432 214.997 604.596 211.18C597.76 207.363 593.231 202.094 591.009 195.372C588.788 188.593 587.677 178.425 587.677 164.867V124.449C587.677 114.48 588.019 107.018 588.702 102.062C589.386 97.0485 591.408 92.2349 594.769 87.6206C598.187 83.0063 602.887 79.389 608.868 76.7686C614.907 74.0911 621.828 72.7524 629.632 72.7524C640.228 72.7524 648.972 74.8032 655.865 78.9048C662.758 83.0063 667.287 88.1333 669.452 94.2856C671.616 100.381 672.699 109.894 672.699 122.826V135.985ZM767.376 75.6577V168.114C767.376 178.596 767.035 185.973 766.351 190.245C765.667 194.461 763.645 198.819 760.284 203.319C756.923 207.762 752.48 211.152 746.954 213.487C741.485 215.766 735.02 216.905 727.557 216.905C719.297 216.905 712.005 215.538 705.682 212.804C699.359 210.069 694.631 206.509 691.498 202.123C688.364 197.736 686.513 193.122 685.943 188.28C685.374 183.381 685.089 173.127 685.089 157.518V75.6577H721.063V179.393C721.063 185.431 721.376 189.305 722.003 191.014C722.687 192.666 724.025 193.492 726.019 193.492C728.298 193.492 729.75 192.581 730.377 190.758C731.061 188.878 731.402 184.492 731.402 177.599V75.6577H767.376ZM853.766 75.6577V103.343H832.403V214H796.429V103.343H775.152V75.6577H853.766Z" fill="black"/>
<path d="M522.743 104.957C513.564 122.563 480.706 132.037 454.49 152.128C435.318 166.822 423.03 189.572 409.56 213.495C395.441 191.098 394.905 152.732 394.681 120.235C394.499 93.7955 392.715 72.4334 398.649 57.0603C405 40.6043 417.629 27.3455 433.756 20.2006C449.883 13.0557 468.188 12.61 484.644 18.9616C518.912 32.1879 539.724 72.3861 522.743 104.957Z" fill="#EF4E55"/>
<path d="M461.229 102.63C480.471 97.8148 492.322 78.9318 487.698 60.4538C483.074 41.9758 463.726 30.9 444.484 35.7154C425.241 40.5307 413.39 59.4137 418.014 77.8917C422.638 96.3697 441.986 107.446 461.229 102.63Z" fill="white"/>
<path d="M419.053 253.551C426.664 251.646 431.291 243.932 429.386 236.32C427.481 228.709 419.767 224.083 412.155 225.987C404.544 227.892 399.917 235.607 401.822 243.218C403.727 250.83 411.441 255.456 419.053 253.551Z" fill="#EF4E55"/>
<path opacity="0.2" d="M479.187 45.6655C485.089 51.4734 488.608 59.1561 489.115 67.3386C489.622 75.5211 487.083 83.6693 481.954 90.3247C476.825 96.9801 469.439 101.708 461.119 103.663C452.8 105.618 444.088 104.672 436.545 100.994C440.144 104.541 444.517 107.277 449.361 109.013C454.205 110.748 459.404 111.441 464.599 111.044C469.793 110.647 474.859 109.169 479.445 106.713C484.031 104.256 488.027 100.88 491.158 96.8184C494.289 92.7563 496.478 88.1054 497.576 83.1877C498.673 78.27 498.652 73.203 497.513 68.3376C496.374 63.4722 494.146 58.9246 490.981 55.0099C487.817 51.0952 483.793 47.9068 479.187 45.6655Z" fill="#231F20"/>
<path opacity="0.2" d="M492.196 23.6096C515.059 41.6209 526.07 72.9731 512.328 99.3324C504.258 114.812 470.355 122.775 447.623 139.381C427.104 154.369 418.108 177.357 402.496 202.246C404.303 206.407 406.416 210.428 408.817 214.277C422.424 190.112 435.764 166.507 455.125 151.724C481.138 131.862 512.889 123.215 522 105.739C537.561 75.8907 521.382 39.6412 492.196 23.6096Z" fill="#231F20"/>
<mask id="mask3_6_168" style="mask-type:luminance" maskUnits="userSpaceOnUse" x="314" y="172" width="80" height="25">
<path d="M314 172H393.966V196.677H314V172Z" fill="white"/>
</mask>
<g mask="url(#mask3_6_168)">
<g opacity="0.300003">
<path d="M327.606 191.576L356.605 196.677L393.965 171.999L342.332 183.089L334.101 177.973L314 183.069L327.606 191.576Z" fill="#262320"/>
</g>
</g>
<path d="M327.856 53.3593L328.143 36.3065H336.415L327.856 53.3593Z" fill="#84847F"/>
<path d="M402.257 22L330.435 38.3463L327.856 53.3593L402.257 22Z" fill="#A3A39F"/>
<path d="M402.257 22.0001L314 23.7183L330.435 38.3464L402.257 22.0001Z" fill="#E5E5E3"/>
<path d="M330.436 38.347L402.258 22.0007L366.346 50.6124L330.436 38.347Z" fill="#F6F6F2"/>
</svg>
